<svg width="29" height="30" viewBox="0 0 29 30" fill="none" xmlns="http://www.w3.org/2000/svg">
<g clip-path="url(#clip0_290_672)">
<path d="M25.778 4.8783H3.22244C2.79515 4.8783 2.38535 5.04962 2.08321 5.35457C1.78107 5.65952 1.61133 6.07312 1.61133 6.50439V22.7653C1.61133 23.1966 1.78107 23.6102 2.08321 23.9151C2.38535 24.2201 2.79515 24.3914 3.22244 24.3914H25.778C26.2053 24.3914 26.6151 24.2201 26.9172 23.9151C27.2194 23.6102 27.3891 23.1966 27.3891 22.7653V6.50439C27.3891 6.07312 27.2194 5.65952 26.9172 5.35457C26.6151 5.04962 26.2053 4.8783 25.778 4.8783ZM25.778 22.7653H3.22244V6.50439H25.778V22.7653Z" fill="#FBFBFF"/>
<path d="M7.24989 11.3827H21.7499C21.9635 11.3827 22.1684 11.297 22.3195 11.1445C22.4706 10.9921 22.5554 10.7853 22.5554 10.5696C22.5554 10.354 22.4706 10.1472 22.3195 9.99473C22.1684 9.84225 21.9635 9.75659 21.7499 9.75659H7.24989C7.03624 9.75659 6.83135 9.84225 6.68028 9.99473C6.52921 10.1472 6.44434 10.354 6.44434 10.5696C6.44434 10.7853 6.52921 10.9921 6.68028 11.1445C6.83135 11.297 7.03624 11.3827 7.24989 11.3827Z" fill="#FBFBFF"/>
<path d="M7.24989 14.6348H21.7499C21.9635 14.6348 22.1684 14.5491 22.3195 14.3966C22.4706 14.2441 22.5554 14.0373 22.5554 13.8217C22.5554 13.6061 22.4706 13.3993 22.3195 13.2468C22.1684 13.0943 21.9635 13.0087 21.7499 13.0087H7.24989C7.03624 13.0087 6.83135 13.0943 6.68028 13.2468C6.52921 13.3993 6.44434 13.6061 6.44434 13.8217C6.44434 14.0373 6.52921 14.2441 6.68028 14.3966C6.83135 14.5491 7.03624 14.6348 7.24989 14.6348Z" fill="#FBFBFF"/>
<path d="M7.24989 17.887H15.3054C15.5191 17.887 15.724 17.8013 15.8751 17.6488C16.0261 17.4963 16.111 17.2895 16.111 17.0739C16.111 16.8583 16.0261 16.6515 15.8751 16.499C15.724 16.3465 15.5191 16.2609 15.3054 16.2609H7.24989C7.03624 16.2609 6.83135 16.3465 6.68028 16.499C6.52921 16.6515 6.44434 16.8583 6.44434 17.0739C6.44434 17.2895 6.52921 17.4963 6.68028 17.6488C6.83135 17.8013 7.03624 17.887 7.24989 17.887Z" fill="#FBFBFF"/>
</g>
<defs>
<clipPath id="clip0_290_672">
<rect width="29" height="29.2696" fill="white"/>
</clipPath>
</defs>
</svg>
