<svg width="25" height="25" viewBox="0 0 25 25" fill="none" xmlns="http://www.w3.org/2000/svg">
<path d="M24.5 12.5C24.5 19.1274 19.1274 24.5 12.5 24.5C5.87258 24.5 0.5 19.1274 0.5 12.5C0.5 5.87258 5.87258 0.5 12.5 0.5C19.1274 0.5 24.5 5.87258 24.5 12.5Z" stroke="#FBFBFF" stroke-linecap="round" stroke-linejoin="round"/>
<path d="M11 9C11 11.25 8 13.5 8 13.5C8 13.5 5 11.25 5 9C5 8.20435 5.31607 7.44129 5.87868 6.87868C6.44129 6.31607 7.20435 6 8 6C8.79565 6 9.55871 6.31607 10.1213 6.87868C10.6839 7.44129 11 8.20435 11 9Z" stroke="#FBFBFF" stroke-linecap="round" stroke-linejoin="round"/>
<path d="M8 10.125C8.62132 10.125 9.125 9.62132 9.125 9C9.125 8.37868 8.62132 7.875 8 7.875C7.37868 7.875 6.875 8.37868 6.875 9C6.875 9.62132 7.37868 10.125 8 10.125Z" stroke="#FBFBFF" stroke-linecap="round" stroke-linejoin="round"/>
<path d="M21 11C21 13.25 18 15.5 18 15.5C18 15.5 15 13.25 15 11C15 10.2044 15.3161 9.44129 15.8787 8.87868C16.4413 8.31607 17.2044 8 18 8C18.7956 8 19.5587 8.31607 20.1213 8.87868C20.6839 9.44129 21 10.2044 21 11Z" stroke="#FBFBFF" stroke-linecap="round" stroke-linejoin="round"/>
<path d="M18 12.125C18.6213 12.125 19.125 11.6213 19.125 11C19.125 10.3787 18.6213 9.875 18 9.875C17.3787 9.875 16.875 10.3787 16.875 11C16.875 11.6213 17.3787 12.125 18 12.125Z" stroke="#FBFBFF" stroke-linecap="round" stroke-linejoin="round"/>
<path d="M16 13C16 15.25 13 17.5 13 17.5C13 17.5 10 15.25 10 13C10 12.2044 10.3161 11.4413 10.8787 10.8787C11.4413 10.3161 12.2044 10 13 10C13.7956 10 14.5587 10.3161 15.1213 10.8787C15.6839 11.4413 16 12.2044 16 13Z" stroke="#FBFBFF" stroke-linecap="round" stroke-linejoin="round"/>
<path d="M13 14.125C13.6213 14.125 14.125 13.6213 14.125 13C14.125 12.3787 13.6213 11.875 13 11.875C12.3787 11.875 11.875 12.3787 11.875 13C11.875 13.6213 12.3787 14.125 13 14.125Z" stroke="#FBFBFF" stroke-linecap="round" stroke-linejoin="round"/>
<path d="M11 15C11 17.25 8 19.5 8 19.5C8 19.5 5 17.25 5 15C5 14.2044 5.31607 13.4413 5.87868 12.8787C6.44129 12.3161 7.20435 12 8 12C8.79565 12 9.55871 12.3161 10.1213 12.8787C10.6839 13.4413 11 14.2044 11 15Z" stroke="#FBFBFF" stroke-linecap="round" stroke-linejoin="round"/>
<path d="M8 16.125C8.62132 16.125 9.125 15.6213 9.125 15C9.125 14.3787 8.62132 13.875 8 13.875C7.37868 13.875 6.875 14.3787 6.875 15C6.875 15.6213 7.37868 16.125 8 16.125Z" stroke="#FBFBFF" stroke-linecap="round" stroke-linejoin="round"/>
<path d="M18 5C18 7.25 15 9.5 15 9.5C15 9.5 12 7.25 12 5C12 4.20435 12.3161 3.44129 12.8787 2.87868C13.4413 2.31607 14.2044 2 15 2C15.7956 2 16.5587 2.31607 17.1213 2.87868C17.6839 3.44129 18 4.20435 18 5Z" stroke="#FBFBFF" stroke-linecap="round" stroke-linejoin="round"/>
<path d="M15 6.125C15.6213 6.125 16.125 5.62132 16.125 5C16.125 4.37868 15.6213 3.875 15 3.875C14.3787 3.875 13.875 4.37868 13.875 5C13.875 5.62132 14.3787 6.125 15 6.125Z" stroke="#FBFBFF" stroke-linecap="round" stroke-linejoin="round"/>
</svg>
