<svg width="22" height="21" viewBox="0 0 22 21" fill="none" xmlns="http://www.w3.org/2000/svg">
<path d="M0.460938 0.953857H21.4609V20.9539H0.460938V0.953857ZM2.56094 2.95386V18.9539H19.3609V2.95386H2.56094ZM15.6859 5.95386C15.5467 5.95386 15.4132 6.00654 15.3147 6.1003C15.2162 6.19407 15.1609 6.32125 15.1609 6.45386C15.1609 6.67586 15.3258 6.99886 15.6733 7.36086L15.6859 7.37386L15.6985 7.36086C16.045 6.99886 16.2109 6.67586 16.2109 6.45386C16.2109 6.32125 16.1556 6.19407 16.0572 6.1003C15.9587 6.00654 15.8252 5.95386 15.6859 5.95386ZM15.6859 9.91786C15.3772 9.71586 15.0622 9.52186 14.7724 9.29586C14.542 9.11555 14.3252 8.92007 14.1235 8.71086C13.6825 8.25186 13.0609 7.45086 13.0609 6.45386C13.0609 5.79082 13.3375 5.15493 13.8298 4.68609C14.3221 4.21725 14.9897 3.95386 15.6859 3.95386C16.3821 3.95386 17.0498 4.21725 17.5421 4.68609C18.0344 5.15493 18.3109 5.79082 18.3109 6.45386C18.3109 7.45086 17.6883 8.25186 17.2483 8.71086C17.0466 8.92002 16.8298 9.1155 16.5994 9.29586C16.3096 9.52286 15.9946 9.71586 15.6859 9.91786ZM7.28594 8.95386C7.1467 8.95386 7.01316 9.00654 6.91471 9.1003C6.81625 9.19407 6.76094 9.32125 6.76094 9.45386C6.76094 9.67586 6.92579 9.99886 7.27334 10.3609L7.28594 10.3739L7.29854 10.3609C7.64504 9.99886 7.81094 9.67586 7.81094 9.45386C7.81094 9.32125 7.75563 9.19407 7.65717 9.1003C7.55871 9.00654 7.42518 8.95386 7.28594 8.95386ZM7.28594 12.9179C7.05389 12.7659 6.81659 12.6189 6.59084 12.4589C6.27831 12.2353 5.98799 11.985 5.72354 11.7109C5.28254 11.2519 4.66094 10.4509 4.66094 9.45386C4.66094 8.79082 4.9375 8.15493 5.42978 7.68609C5.92207 7.21725 6.58974 6.95386 7.28594 6.95386C7.98213 6.95386 8.64981 7.21725 9.14209 7.68609C9.63438 8.15493 9.91094 8.79082 9.91094 9.45386C9.91094 10.4509 9.28829 11.2519 8.84834 11.7109C8.58384 11.9849 8.29352 12.2353 7.98104 12.4589C7.75529 12.6189 7.51799 12.7659 7.28594 12.9179ZM19.1383 12.5389L12.9717 14.7409L12.2346 12.8689L18.4002 10.6669L19.1383 12.5389ZM10.7383 15.5389L4.57169 17.7419L3.83459 15.8689L10.0002 13.6669L10.7383 15.5389Z" fill="#FBFBFF"/>
</svg>
