<svg width="21" height="31" viewBox="0 0 21 31" fill="none" xmlns="http://www.w3.org/2000/svg">
<path d="M3.90785 0C2.56409 0 1.21864 1.5834 1.21864 4.7502L3.90785 13.195L6.59539 4.7502C6.59539 1.5834 5.25162 0 3.90785 0ZM15.7624 2.57302C15.4727 2.59216 15.1913 2.67858 14.9561 2.75775L15.1157 3.91891C15.3509 3.83644 15.5944 3.78432 15.8002 3.76057L15.7624 2.57302ZM3.90785 2.639C4.65112 2.639 5.25162 3.58442 5.25162 4.7502C5.25162 5.91795 4.65112 6.8614 3.90785 6.8614C3.16584 6.8614 2.56409 5.91795 2.56409 4.7502C2.56409 3.58442 3.16584 2.639 3.90785 2.639ZM16.5981 2.65219L16.4721 3.81995C16.6778 3.8879 16.8836 3.97301 17.0642 4.14323L17.4295 3.10082C17.1734 2.8864 16.8878 2.69376 16.5981 2.65219ZM14.1835 3.09423C13.9273 3.25125 13.6712 3.39177 13.4528 3.52966L13.751 4.61825C13.9819 4.46387 14.2255 4.32928 14.4312 4.2158L14.1835 3.09423ZM18.1182 3.97829L17.5429 4.7502C17.6941 5.02201 17.8117 5.35717 17.904 5.62766L18.5801 5.09327C18.4373 4.66113 18.3114 4.3339 18.1182 3.97829ZM12.7515 4.03767C12.4954 4.24285 12.2854 4.4256 12.0586 4.60505L12.4282 5.64746C12.6465 5.44953 12.8859 5.2582 13.0791 5.10646L12.7515 4.03767ZM11.3952 5.21862C11.1726 5.42314 10.9542 5.62766 10.7401 5.85198L11.1516 6.8416C11.3574 6.63048 11.5715 6.43256 11.7815 6.23463L11.3952 5.21862ZM18.8405 6.39957C18.5927 6.46555 18.3408 6.51173 18.093 6.55791C18.1098 6.88779 18.0972 7.24405 18.0552 7.52115L18.7901 7.79164C18.8321 7.31662 18.8699 6.82841 18.8405 6.39957ZM10.1018 6.51173C9.89182 6.73604 9.68606 6.96696 9.47609 7.19127L9.91282 8.1611C10.1144 7.93019 10.3201 7.71247 10.5259 7.48816L10.1018 6.51173ZM8.8588 7.9038C8.64883 8.14131 8.43047 8.40521 8.2499 8.62293L8.70762 9.56637C8.93858 9.30247 9.09816 9.10454 9.30812 8.86044L8.8588 7.9038ZM17.8033 8.4316C17.6773 8.73508 17.5303 9.03857 17.3833 9.26948L17.9334 10.0942C18.114 9.7577 18.3072 9.41463 18.4415 9.07156L17.8033 8.4316ZM7.64941 9.36185C7.44364 9.61255 7.23788 9.86985 7.05731 10.1074L7.53603 11.0244C7.73339 10.7671 7.93496 10.5032 8.11973 10.2921L7.64941 9.36185ZM16.8626 10.0282C16.6694 10.2723 16.4679 10.5098 16.2831 10.7077L16.7156 11.6842C16.9382 11.4467 17.1566 11.1894 17.3455 10.9518L16.8626 10.0282ZM6.47361 10.8793C6.27624 11.13 6.08728 11.3939 5.89411 11.6512L6.38543 12.555C6.57439 12.2977 6.76336 12.0404 6.95653 11.7897L6.47361 10.8793ZM15.6658 11.3411C15.4517 11.539 15.2291 11.7435 15.0275 11.9151L15.3887 12.9641C15.6154 12.7464 15.8716 12.555 16.0606 12.3571L15.6658 11.3411ZM5.31881 12.4363C5.12984 12.7002 4.94507 12.9641 4.75611 13.2346L5.26422 14.1186C5.44899 13.8547 5.63795 13.5908 5.82272 13.3269L5.31881 12.4363ZM14.3682 12.4627C14.1457 12.6342 13.9231 12.8123 13.7006 12.9839L14.0239 14.0527C14.2843 13.8547 14.4774 13.6898 14.7126 13.5183L14.3682 12.4627ZM13.0245 13.4787C12.7935 13.6436 12.571 13.802 12.3358 13.9537L12.6423 15.0423C12.8733 14.884 13.1043 14.719 13.3352 14.5541L13.0245 13.4787ZM4.2018 14.0527C3.98764 14.3496 3.83857 14.5805 3.6433 14.8774L4.17661 15.735C4.37397 15.4381 4.53355 15.1808 4.71831 14.9301L4.2018 14.0527ZM11.6471 14.4353C11.4162 14.5871 11.1852 14.7454 10.9542 14.8971L11.2482 15.9989C11.4833 15.8472 11.7143 15.6888 11.9453 15.5305L11.6471 14.4353ZM10.2572 15.359C10.0262 15.5173 9.79524 15.6756 9.56008 15.8208L9.85403 16.9226C10.085 16.7708 10.3201 16.6125 10.5511 16.4608L10.2572 15.359ZM18.0174 15.834C16.6736 15.834 15.3299 17.4174 15.3299 20.5842L18.0174 29.029L20.705 20.5842C20.705 17.4174 19.3612 15.834 18.0174 15.834ZM8.863 16.2826C8.62364 16.4542 8.37168 16.6125 8.16592 16.751L8.46407 17.8462C8.71182 17.6813 8.94698 17.5229 9.15695 17.3778L8.863 16.2826ZM7.46884 17.2195C7.24208 17.3844 6.97752 17.5691 6.77596 17.7143L7.0867 18.7963C7.33446 18.6247 7.55282 18.4532 7.77119 18.3081L7.46884 17.2195ZM6.08308 18.2091C5.84792 18.3872 5.60436 18.572 5.3944 18.7369L5.73454 19.7991C5.9613 19.6144 6.19646 19.4428 6.40222 19.2845L6.08308 18.2091ZM18.0174 18.473C18.7607 18.473 19.3612 19.4164 19.3612 20.5842C19.3612 21.7519 18.7607 22.6954 18.0174 22.6954C17.2741 22.6954 16.6736 21.7519 16.6736 20.5842C16.6736 19.4164 17.2741 18.473 18.0174 18.473ZM4.71411 19.2845C4.49155 19.4758 4.26899 19.6737 4.04223 19.8783L4.42017 20.9075C4.63433 20.7095 4.85269 20.5248 5.07105 20.3401L4.71411 19.2845ZM3.38294 20.5182C3.14736 20.7293 2.91976 21.013 2.72366 21.2175L3.18138 22.1676C3.39008 21.9301 3.61474 21.686 3.79447 21.5144L3.38294 20.5182ZM2.12736 22.0092C1.9258 22.2995 1.72717 22.636 1.57306 22.9197L2.14836 23.6916C2.31003 23.3815 2.45071 23.1506 2.63967 22.8867L2.12736 22.0092ZM11.2734 22.095L11.3406 23.276C11.5589 23.2166 11.7773 23.2562 11.9957 23.309L12.1258 22.1412C11.8487 22.0752 11.5547 22.029 11.2734 22.095ZM9.71125 22.7548L9.9968 23.8565C10.2152 23.7048 10.4419 23.586 10.6729 23.4739C10.5931 23.0978 10.5343 22.7152 10.4713 22.3325C10.2068 22.4513 9.94221 22.6096 9.71125 22.7548ZM12.9657 22.6954L12.5374 23.6718C12.7137 23.8763 12.8859 24.0941 13.0245 24.3646L13.5956 23.586C13.3814 23.243 13.2176 22.9197 12.9657 22.6954ZM8.99737 23.2892C8.76641 23.4739 8.54385 23.685 8.32129 23.8895L8.70343 24.9121C8.92179 24.7274 9.13595 24.5097 9.35011 24.3316L8.99737 23.2892ZM1.11156 24.0149C0.984738 24.4437 0.881856 24.9055 0.833984 25.3146L1.57726 25.5191C1.62261 25.1431 1.6877 24.8726 1.78302 24.5493C1.55248 24.3909 1.33244 24.1996 1.11156 24.0149ZM7.6662 24.5295C7.45204 24.7472 7.24208 24.9649 7.03211 25.1892L7.45204 26.1789C7.662 25.9611 7.86777 25.7368 8.07773 25.5191L7.6662 24.5295ZM14.0785 24.6087L13.4444 25.2552C13.5788 25.5719 13.709 25.9018 13.8307 26.2382L14.4858 25.6445C14.3389 25.275 14.2339 24.9451 14.0785 24.6087ZM6.40642 25.8622C6.19646 26.0799 5.98649 26.291 5.78073 26.5219L6.20066 27.5116C6.40222 27.2806 6.61639 27.0629 6.83055 26.8386L6.40642 25.8622ZM1.58565 26.4889C1.34252 26.5681 1.09728 26.6341 0.852881 26.7067C0.896974 27.1685 1.01497 27.6171 1.12163 27.9734L1.80402 27.4588C1.71289 27.1289 1.62639 26.7858 1.58565 26.4889ZM14.8596 26.6737L14.2045 27.2675C14.3347 27.6237 14.4858 28.0064 14.6076 28.3099L15.2417 27.6699C15.0989 27.3202 14.9771 26.9904 14.8596 26.6737ZM5.15924 27.1685C4.94927 27.373 4.74351 27.5709 4.52515 27.7623L4.89888 28.7981C5.12144 28.5935 5.34401 28.389 5.55817 28.1713L5.15924 27.1685ZM2.16515 28.2439L1.64864 29.1147C1.88212 29.4644 2.17019 29.6953 2.4843 29.8009L2.65227 28.6463C2.46582 28.587 2.29155 28.4418 2.16515 28.2439ZM3.88686 28.2637C3.67647 28.4154 3.45811 28.5342 3.23177 28.6067L3.40394 29.7679C3.67353 29.6821 3.92717 29.5238 4.18081 29.3589L3.88686 28.2637ZM15.6574 28.5804L15.0737 29.3259C15.2543 29.6755 15.4769 30.012 15.67 30.2495L16.1361 29.3127C15.9514 29.0884 15.7918 28.8179 15.6574 28.5804ZM16.6694 29.7349L16.4805 30.8895C16.8122 30.995 17.06 31.028 17.3707 30.9752L17.2783 29.7943C17.0726 29.8471 16.871 29.8141 16.6694 29.7349Z" fill="#FBFBFF"/>
</svg>
