<svg width="23" height="23" viewBox="0 0 23 23" fill="none" xmlns="http://www.w3.org/2000/svg">
<path d="M15.8125 4.3125V0H2.875V20.125H0V21.5625H10.0625V14.375H12.9375V11.5H20.125V4.3125H15.8125ZM8.625 14.375H5.75V11.5H8.625V14.375ZM8.625 10.0625H5.75V7.1875H8.625V10.0625ZM8.625 5.75H5.75V2.875H8.625V5.75ZM12.9375 10.0625H10.0625V7.1875H12.9375V10.0625ZM12.9375 5.75H10.0625V2.875H12.9375V5.75ZM18.6875 10.0625H15.8125V7.1875H18.6875V10.0625ZM20.125 15.8125H23V23H11.5V15.8125H14.375V12.9375H20.125V15.8125Z" fill="#FBFBFF"/>
</svg>
